<svg width="48" height="48" viewBox="0 0 48 48" fill="none" xmlns="http://www.w3.org/2000/svg">
<g opacity="0.15">
<path d="M47.7222 20.1883C47.5004 19.9665 47.1817 19.8704 46.8744 19.9322L38.7953 21.5581C38.4566 21.6264 38.1828 21.8754 38.0829 22.206C37.9829 22.5367 38.073 22.8957 38.3173 23.1401L39.4104 24.2331L35.1205 28.523L31.7996 25.202C31.6237 25.0263 31.3853 24.9274 31.1367 24.9274C30.8881 24.9274 30.6497 25.0263 30.4738 25.202L26.3988 29.2771L27.9274 23.7847C28.299 22.4495 28.0313 21.0509 27.1929 19.9473C26.6794 19.2714 26.0015 18.773 25.235 18.4875L26.457 14.9969C26.7942 15.0265 27.1305 15.0416 27.463 15.0416C30.1699 15.0416 32.8092 14.0875 34.8947 12.3552L35.1181 12.1697C36.2176 11.2562 36.4054 9.66864 35.546 8.55572C35.1102 7.9913 34.4804 7.63732 33.7727 7.55914C33.0646 7.48087 32.3728 7.6886 31.825 8.14372L31.5712 8.35455C31.1973 8.66512 30.7884 8.93332 30.3558 9.15146C28.9103 9.88059 27.1052 9.55587 25.9058 8.3688C27.6505 7.82837 28.9215 6.19968 28.9215 4.27964C28.9216 1.91985 27.0016 0 24.6417 0C22.2817 0 20.3619 1.91985 20.3619 4.27974C20.3619 5.21885 20.6667 6.08766 21.1814 6.79411C20.2078 7.00372 19.3316 7.50571 18.6611 8.21544C18.622 8.24975 18.5845 8.28687 18.5506 8.32868C16.898 10.3586 14.6949 11.8146 12.1795 12.5391C11.4984 12.7354 10.9594 13.1877 10.6359 13.761L8.71453 11.8396C7.87385 10.999 6.50614 10.9991 5.66536 11.8396L3.15089 14.3542L0.636428 16.8687C0.229116 17.2759 0.00488281 17.8172 0.00488281 18.3933C0.00488281 18.9692 0.229209 19.5106 0.636335 19.9179L7.5644 26.846C7.97171 27.2532 8.51308 27.4774 9.08904 27.4774C9.66508 27.4774 10.2064 27.2531 10.6137 26.846L13.2172 24.2425L11.9827 27.4796C11.7982 27.9633 12.0408 28.505 12.5245 28.6895C12.6345 28.7314 12.7474 28.7513 12.8584 28.7513C13.236 28.7513 13.592 28.5215 13.7346 28.1477L16.8091 20.0857H22.6784H23.693C24.4878 20.0857 25.2193 20.4487 25.7001 21.0816C26.1809 21.7144 26.3344 22.5165 26.1213 23.2821L23.9911 30.9358C23.8953 31.2802 23.5787 31.5208 23.2211 31.5208C22.9004 31.5208 22.7026 31.3451 22.6132 31.2404C22.5239 31.1357 22.3814 30.9126 22.4317 30.596L23.5652 23.4704C23.6083 23.1994 23.5305 22.9232 23.3524 22.7146C23.1743 22.5059 22.9137 22.3857 22.6394 22.3857H20.4169C20.0634 22.3857 19.7399 22.5845 19.5804 22.9C19.5256 23.0082 14.0866 33.7624 12.2537 37.3963C12.0702 37.7602 11.6714 37.9678 11.2624 37.9119L11.2179 37.9059C10.9389 37.8682 10.6964 37.7077 10.5525 37.4656C10.4087 37.2234 10.3838 36.9337 10.4842 36.6706L11.0619 35.156C11.2463 34.6723 11.0037 34.1306 10.52 33.9461C10.0364 33.7616 9.49466 34.0043 9.31008 34.4879L8.73244 36.0025C8.42693 36.8036 8.50286 37.6859 8.94073 38.423C9.37861 39.1601 10.117 39.6489 10.966 39.7638L11.0104 39.7698C11.1389 39.7873 11.267 39.7956 11.3942 39.7956C12.4555 39.7956 13.4426 39.2026 13.9278 38.2406C15.5287 35.0665 19.8827 26.4566 20.9933 24.2606H21.5411L20.5802 30.3014C20.4571 31.0755 20.6784 31.8614 21.1873 32.4575C21.5147 32.841 21.9386 33.1186 22.4078 33.2683L11.9652 43.711C11.7894 43.8868 11.6906 44.1252 11.6906 44.3738C11.6906 44.6224 11.7894 44.8609 11.9652 45.0367L14.654 47.7254C14.8371 47.9084 15.077 48 15.3168 48C15.5567 48 15.7966 47.9084 15.9797 47.7254L21.1488 42.5564C21.5148 42.1903 21.5148 41.5967 21.1488 41.2305C20.7826 40.8646 20.1892 40.8646 19.823 41.2305L15.3168 45.7368L13.9538 44.3737L31.1369 27.1905L34.4578 30.5114C34.6337 30.6872 34.8721 30.786 35.1207 30.786C35.3693 30.786 35.6077 30.6872 35.7835 30.5114L41.399 24.8959C41.7651 24.5298 41.7651 23.9362 41.399 23.57L40.8799 23.0509L45.8622 22.0482L44.8595 27.0306L44.0879 26.259C43.7218 25.893 43.1284 25.893 42.7621 26.259L35.1206 33.9005L31.7997 30.5796C31.4335 30.2136 30.8401 30.2136 30.4738 30.5796L25.1257 35.9277C24.7597 36.2938 24.7597 36.8873 25.1257 37.2535C25.4919 37.6195 26.0853 37.6195 26.4515 37.2535L31.1367 32.5683L34.4576 35.8893C34.8238 36.2552 35.4172 36.2552 35.7834 35.8893L43.425 28.2477L44.7706 29.5933C45.0149 29.8376 45.374 29.9279 45.7045 29.8278C46.0353 29.7279 46.2843 29.4541 46.3525 29.1153L47.9784 21.0361C48.0403 20.7285 47.9441 20.4103 47.7222 20.1883ZM24.6417 1.87486C25.9678 1.87486 27.0466 2.95374 27.0466 4.27974C27.0466 5.60582 25.9677 6.68471 24.6417 6.68471C23.3156 6.68471 22.2368 5.60582 22.2368 4.27974C22.2368 2.95374 23.3156 1.87486 24.6417 1.87486ZM15.3657 18.4908L14.2248 17.3499C14.7667 17.1731 15.2988 16.9709 15.8199 16.7447L15.3657 18.4908ZM12.202 15.239C12.0912 14.8545 12.314 14.4516 12.6985 14.3408C14.2395 13.8968 15.6769 13.2114 16.9719 12.3162L16.4425 14.3514C15.3886 14.9337 14.2666 15.3994 13.0999 15.7355C13.0783 15.7417 13.0556 15.7471 13.0332 15.7514C12.8602 15.7843 12.6872 15.7499 12.5419 15.6671L12.2673 15.3925C12.2402 15.3446 12.2177 15.2936 12.202 15.239ZM6.99098 13.1653C7.04582 13.1105 7.1179 13.0831 7.1899 13.0831C7.26189 13.0831 7.33398 13.1105 7.38873 13.1653L10.8058 16.5825C10.9644 16.7989 11.1533 16.9876 11.3662 17.1429L14.3169 20.0935C14.4266 20.2031 14.4266 20.3816 14.3169 20.4912L12.4653 22.3428L10.406 20.2835L10.7982 19.8913C11.1643 19.5252 11.1643 18.9317 10.7982 18.5655L8.6881 16.4553C8.32194 16.0894 7.72854 16.0894 7.36229 16.4553L6.97007 16.8476L5.13937 15.0169L6.99098 13.1653ZM8.27413 19.764C8.18442 19.8537 8.07971 19.8672 8.02524 19.8672C7.97087 19.8672 7.86616 19.8537 7.77645 19.7641V19.764L7.48969 19.4773C7.40007 19.3876 7.38657 19.2829 7.38657 19.2285C7.38657 19.1741 7.40007 19.0694 7.48978 18.9796L8.02524 18.4442L8.80959 19.2285L8.27413 19.764ZM9.28786 25.5203C9.21971 25.5883 9.14219 25.6026 9.08904 25.6026C9.03598 25.6026 8.95826 25.5883 8.89021 25.5202L1.96214 18.5921C1.89399 18.524 1.87974 18.4463 1.87974 18.3933C1.87974 18.3401 1.89399 18.2625 1.96214 18.1945L3.81366 16.3428L5.73201 18.2611C5.58811 18.559 5.51171 18.8879 5.51171 19.2285C5.51171 19.8234 5.74345 20.3826 6.16398 20.8031L6.45064 21.0897V21.0898C6.87117 21.5103 7.43044 21.7421 8.02524 21.7421C8.3659 21.7421 8.69475 21.6658 8.99267 21.5218L11.1396 23.6687L9.28786 25.5203ZM22.6783 18.2109H17.3758L19.3016 10.8077C19.646 9.48406 20.8417 8.55966 22.2094 8.55966C23.0543 8.55966 23.8358 8.90032 24.41 9.51893C26.1712 11.4167 28.9637 11.9539 31.2004 10.8255C31.7589 10.5438 32.2868 10.1978 32.7694 9.79679L33.0232 9.58596C33.1762 9.45884 33.3692 9.40053 33.567 9.42284C33.7643 9.44459 33.9402 9.54359 34.0622 9.70173C34.2978 10.0067 34.234 10.467 33.9201 10.7277L33.6968 10.9132C31.9472 12.3666 29.7334 13.1669 27.4631 13.1669C26.9701 13.1669 26.4662 13.1275 25.9654 13.0496C25.5183 12.9794 25.0859 13.2393 24.9365 13.6661L23.3454 18.2109H22.6783Z" fill="#2926D2"/>
<path d="M23.1542 38.3223C22.9077 38.3223 22.6658 38.4225 22.4915 38.5969C22.3171 38.7712 22.2168 39.0131 22.2168 39.2597C22.2168 39.5072 22.317 39.7481 22.4915 39.9224C22.6658 40.0977 22.9077 40.1971 23.1542 40.1971C23.4008 40.1971 23.6426 40.0977 23.8169 39.9224C23.9913 39.7481 24.0917 39.5071 24.0917 39.2597C24.0917 39.0131 23.9914 38.7712 23.8169 38.5969C23.6426 38.4225 23.4008 38.3223 23.1542 38.3223Z" fill="#2926D2"/>
<path d="M11.5195 32.2606C11.766 32.2606 12.0079 32.1603 12.1822 31.9858C12.3565 31.8116 12.4569 31.5697 12.4569 31.3232C12.4569 31.0766 12.3566 30.8348 12.1822 30.6604C12.0069 30.486 11.766 30.3857 11.5195 30.3857C11.2729 30.3857 11.0311 30.486 10.8558 30.6604C10.6815 30.8348 10.582 31.0766 10.582 31.3232C10.582 31.5697 10.6815 31.8116 10.8558 31.9858C11.0311 32.1602 11.272 32.2606 11.5195 32.2606Z" fill="#2926D2"/>
</g>
</svg>
