<svg width="10" height="10" viewBox="0 0 10 10" fill="none" xmlns="http://www.w3.org/2000/svg">
<path d="M9.47999 0.519868C9.29953 0.339406 9.00784 0.339406 8.82737 0.519868L4.99984 4.34741L1.1723 0.519868C0.991839 0.339406 0.700146 0.339406 0.519685 0.519868C0.339223 0.700329 0.339223 0.992022 0.519685 1.17248L4.34722 5.00002L0.519685 8.82756C0.339223 9.00802 0.339223 9.29971 0.519685 9.48017C0.609684 9.57017 0.727839 9.61541 0.845992 9.61541C0.964146 9.61541 1.0823 9.57017 1.1723 9.48017L4.99984 5.65264L8.82737 9.48017C8.91737 9.57017 9.03553 9.61541 9.15368 9.61541C9.27184 9.61541 9.38999 9.57017 9.47999 9.48017C9.66045 9.29971 9.66045 9.00802 9.47999 8.82756L5.65245 5.00002L9.47999 1.17248C9.66045 0.992022 9.66045 0.700329 9.47999 0.519868Z" fill="#212020"/>
</svg>
