<svg width="48" height="48" viewBox="0 0 48 48" fill="none" xmlns="http://www.w3.org/2000/svg">
<g opacity="0.15">
<path d="M30.6206 12.4745C31.9129 12.4745 32.9643 11.4231 32.9643 10.1307C32.9643 8.83837 31.9129 7.78687 30.6206 7.78687C29.3282 7.78687 28.2768 8.83837 28.2768 10.1307C28.2768 10.6585 28.4523 11.146 28.7479 11.5383L24.8971 16.9196C24.6673 16.8441 24.4221 16.8027 24.1673 16.8027C23.5515 16.8027 22.9906 17.0419 22.572 17.4317L20.0052 15.9752C20.0394 15.8162 20.0578 15.6514 20.0578 15.4823C20.0578 14.19 19.0064 13.1386 17.714 13.1386C16.4217 13.1386 15.3703 14.19 15.3703 15.4823C15.3703 15.6514 15.3886 15.8162 15.4229 15.9752L12.8561 17.4317C12.4374 17.0419 11.8766 16.8028 11.2607 16.8028C9.9684 16.8028 8.91699 17.8543 8.91699 19.1466C8.91699 20.439 9.9684 21.4905 11.2607 21.4905C12.5531 21.4905 13.6045 20.439 13.6045 19.1466C13.6045 18.9776 13.5861 18.8128 13.5519 18.6538L16.1187 17.1973C16.5374 17.5871 17.0982 17.8263 17.714 17.8263C18.3299 17.8263 18.8906 17.5871 19.3094 17.1974L21.8761 18.6539C21.8419 18.8129 21.8236 18.9777 21.8236 19.1467C21.8236 20.4391 22.875 21.4906 24.1673 21.4906C25.4597 21.4906 26.5111 20.4391 26.5111 19.1467C26.5111 18.6188 26.3356 18.1312 26.04 17.739L29.8908 12.3576C30.1205 12.433 30.3658 12.4745 30.6206 12.4745ZM30.6206 9.19312C31.1375 9.19312 31.5581 9.61368 31.5581 10.1307C31.5581 10.6476 31.1375 11.0682 30.6206 11.0682C30.1036 11.0682 29.6831 10.6476 29.6831 10.1307C29.683 9.61368 30.1036 9.19312 30.6206 9.19312ZM11.2605 20.0841C10.7435 20.0841 10.323 19.6635 10.323 19.1465C10.323 18.6294 10.7435 18.2089 11.2605 18.2089C11.7774 18.2089 12.198 18.6294 12.198 19.1465C12.198 19.6635 11.7774 20.0841 11.2605 20.0841ZM17.7138 16.4198C17.1969 16.4198 16.7763 15.9993 16.7763 15.4822C16.7763 14.9653 17.1969 14.5447 17.7138 14.5447C18.2308 14.5447 18.6513 14.9653 18.6513 15.4822C18.6514 15.9993 18.2308 16.4198 17.7138 16.4198ZM24.1672 20.0841C23.6503 20.0841 23.2297 19.6635 23.2297 19.1465C23.2297 18.6294 23.6503 18.2089 24.1672 18.2089C24.6842 18.2089 25.1048 18.6294 25.1048 19.1465C25.1048 19.6635 24.6841 20.0841 24.1672 20.0841Z" fill="#606060"/>
<path d="M30.6206 12.4745C31.9129 12.4745 32.9643 11.4231 32.9643 10.1307C32.9643 8.83837 31.9129 7.78687 30.6206 7.78687C29.3282 7.78687 28.2768 8.83837 28.2768 10.1307C28.2768 10.6585 28.4523 11.146 28.7479 11.5383L24.8971 16.9196C24.6673 16.8441 24.4221 16.8027 24.1673 16.8027C23.5515 16.8027 22.9906 17.0419 22.572 17.4317L20.0052 15.9752C20.0394 15.8162 20.0578 15.6514 20.0578 15.4823C20.0578 14.19 19.0064 13.1386 17.714 13.1386C16.4217 13.1386 15.3703 14.19 15.3703 15.4823C15.3703 15.6514 15.3886 15.8162 15.4229 15.9752L12.8561 17.4317C12.4374 17.0419 11.8766 16.8028 11.2607 16.8028C9.9684 16.8028 8.91699 17.8543 8.91699 19.1466C8.91699 20.439 9.9684 21.4905 11.2607 21.4905C12.5531 21.4905 13.6045 20.439 13.6045 19.1466C13.6045 18.9776 13.5861 18.8128 13.5519 18.6538L16.1187 17.1973C16.5374 17.5871 17.0982 17.8263 17.714 17.8263C18.3299 17.8263 18.8906 17.5871 19.3094 17.1974L21.8761 18.6539C21.8419 18.8129 21.8236 18.9777 21.8236 19.1467C21.8236 20.4391 22.875 21.4906 24.1673 21.4906C25.4597 21.4906 26.5111 20.4391 26.5111 19.1467C26.5111 18.6188 26.3356 18.1312 26.04 17.739L29.8908 12.3576C30.1205 12.433 30.3658 12.4745 30.6206 12.4745ZM30.6206 9.19312C31.1375 9.19312 31.5581 9.61368 31.5581 10.1307C31.5581 10.6476 31.1375 11.0682 30.6206 11.0682C30.1036 11.0682 29.6831 10.6476 29.6831 10.1307C29.683 9.61368 30.1036 9.19312 30.6206 9.19312ZM11.2605 20.0841C10.7435 20.0841 10.323 19.6635 10.323 19.1465C10.323 18.6294 10.7435 18.2089 11.2605 18.2089C11.7774 18.2089 12.198 18.6294 12.198 19.1465C12.198 19.6635 11.7774 20.0841 11.2605 20.0841ZM17.7138 16.4198C17.1969 16.4198 16.7763 15.9993 16.7763 15.4822C16.7763 14.9653 17.1969 14.5447 17.7138 14.5447C18.2308 14.5447 18.6513 14.9653 18.6513 15.4822C18.6514 15.9993 18.2308 16.4198 17.7138 16.4198ZM24.1672 20.0841C23.6503 20.0841 23.2297 19.6635 23.2297 19.1465C23.2297 18.6294 23.6503 18.2089 24.1672 18.2089C24.6842 18.2089 25.1048 18.6294 25.1048 19.1465C25.1048 19.6635 24.6841 20.0841 24.1672 20.0841Z" fill="#2926D2"/>
<path d="M39.2621 35.3408H34.3416H7.54012H1.98891C1.66762 35.3408 1.40625 35.0794 1.40625 34.7582V5.75014C1.40625 5.42886 1.66762 5.16748 1.98891 5.16748H5.30353C5.69184 5.16748 6.00666 4.85276 6.00666 4.46436C6.00666 4.07595 5.69184 3.76123 5.30353 3.76123H1.98891C0.892219 3.76123 0 4.65345 0 5.75014V34.7582C0 35.8549 0.892219 36.7471 1.98891 36.7471H6.837V38.2945C6.837 39.176 7.55419 39.8932 8.43572 39.8932H15.4739L12.1608 46.3618C11.9838 46.7075 12.1204 47.1311 12.466 47.3082C12.5686 47.3608 12.6781 47.3856 12.786 47.3856C13.0415 47.3856 13.2879 47.2459 13.4123 47.0029L17.0539 39.8932H24.8278L28.4693 47.0029C28.5938 47.2459 28.8402 47.3856 29.0957 47.3856C29.2036 47.3856 29.3131 47.3606 29.4157 47.3082C29.7613 47.1311 29.898 46.7075 29.7209 46.3618L26.4078 39.8932H33.446C34.3275 39.8932 35.0447 39.1761 35.0447 38.2945V36.7471H39.2621C39.6504 36.7471 39.9652 36.4324 39.9652 36.0439C39.9652 35.6555 39.6504 35.3408 39.2621 35.3408ZM33.6384 38.2945C33.6384 38.4006 33.5521 38.487 33.446 38.487H8.43572C8.32959 38.487 8.24325 38.4006 8.24325 38.2945V36.7471H33.6384V38.2945Z" fill="#606060"/>
<path d="M39.2621 35.3408H34.3416H7.54012H1.98891C1.66762 35.3408 1.40625 35.0794 1.40625 34.7582V5.75014C1.40625 5.42886 1.66762 5.16748 1.98891 5.16748H5.30353C5.69184 5.16748 6.00666 4.85276 6.00666 4.46436C6.00666 4.07595 5.69184 3.76123 5.30353 3.76123H1.98891C0.892219 3.76123 0 4.65345 0 5.75014V34.7582C0 35.8549 0.892219 36.7471 1.98891 36.7471H6.837V38.2945C6.837 39.176 7.55419 39.8932 8.43572 39.8932H15.4739L12.1608 46.3618C11.9838 46.7075 12.1204 47.1311 12.466 47.3082C12.5686 47.3608 12.6781 47.3856 12.786 47.3856C13.0415 47.3856 13.2879 47.2459 13.4123 47.0029L17.0539 39.8932H24.8278L28.4693 47.0029C28.5938 47.2459 28.8402 47.3856 29.0957 47.3856C29.2036 47.3856 29.3131 47.3606 29.4157 47.3082C29.7613 47.1311 29.898 46.7075 29.7209 46.3618L26.4078 39.8932H33.446C34.3275 39.8932 35.0447 39.1761 35.0447 38.2945V36.7471H39.2621C39.6504 36.7471 39.9652 36.4324 39.9652 36.0439C39.9652 35.6555 39.6504 35.3408 39.2621 35.3408ZM33.6384 38.2945C33.6384 38.4006 33.5521 38.487 33.446 38.487H8.43572C8.32959 38.487 8.24325 38.4006 8.24325 38.2945V36.7471H33.6384V38.2945Z" fill="#2926D2"/>
<path d="M8.11621 5.1673H17.7417H24.1402H39.8929C40.2141 5.1673 40.4755 5.42868 40.4755 5.74996V12.4354C40.4755 12.8238 40.7903 13.1385 41.1786 13.1385C41.567 13.1385 41.8818 12.8238 41.8818 12.4354V5.74996C41.8818 4.65327 40.9896 3.76105 39.8929 3.76105H24.8435V2.37899C24.8435 1.40633 24.0521 0.61499 23.0794 0.61499H18.8027C17.83 0.61499 17.0386 1.40633 17.0386 2.37899V3.76105H8.11621C7.7279 3.76105 7.41309 4.07577 7.41309 4.46418C7.41309 4.85258 7.7279 5.1673 8.11621 5.1673ZM18.4448 2.37899C18.4448 2.18174 18.6053 2.02124 18.8027 2.02124H23.0794C23.2766 2.02124 23.4372 2.18174 23.4372 2.37899V3.76105H18.4449V2.37899H18.4448Z" fill="#606060"/>
<path d="M8.11621 5.1673H17.7417H24.1402H39.8929C40.2141 5.1673 40.4755 5.42868 40.4755 5.74996V12.4354C40.4755 12.8238 40.7903 13.1385 41.1786 13.1385C41.567 13.1385 41.8818 12.8238 41.8818 12.4354V5.74996C41.8818 4.65327 40.9896 3.76105 39.8929 3.76105H24.8435V2.37899C24.8435 1.40633 24.0521 0.61499 23.0794 0.61499H18.8027C17.83 0.61499 17.0386 1.40633 17.0386 2.37899V3.76105H8.11621C7.7279 3.76105 7.41309 4.07577 7.41309 4.46418C7.41309 4.85258 7.7279 5.1673 8.11621 5.1673ZM18.4448 2.37899C18.4448 2.18174 18.6053 2.02124 18.8027 2.02124H23.0794C23.2766 2.02124 23.4372 2.18174 23.4372 2.37899V3.76105H18.4449V2.37899H18.4448Z" fill="#2926D2"/>
<path d="M9.83496 25.0859C9.44665 25.0859 9.13184 25.4007 9.13184 25.7891V32.0021C9.13184 32.3905 9.44665 32.7052 9.83496 32.7052H12.6875C13.0758 32.7052 13.3906 32.3905 13.3906 32.0021V25.7891C13.3906 25.4007 13.0758 25.0859 12.6875 25.0859H9.83496ZM11.9844 31.299H10.5381V26.4923H11.9844V31.299Z" fill="#606060"/>
<path d="M9.83496 25.0859C9.44665 25.0859 9.13184 25.4007 9.13184 25.7891V32.0021C9.13184 32.3905 9.44665 32.7052 9.83496 32.7052H12.6875C13.0758 32.7052 13.3906 32.3905 13.3906 32.0021V25.7891C13.3906 25.4007 13.0758 25.0859 12.6875 25.0859H9.83496ZM11.9844 31.299H10.5381V26.4923H11.9844V31.299Z" fill="#2926D2"/>
<path d="M16.2881 21.4919C15.8998 21.4919 15.585 21.8067 15.585 22.1951V32.0014C15.585 32.3898 15.8998 32.7045 16.2881 32.7045H19.1406C19.5289 32.7045 19.8437 32.3898 19.8437 32.0014V22.1951C19.8437 21.8067 19.5289 21.4919 19.1406 21.4919H16.2881ZM18.4376 31.2983H16.9913V22.8982H18.4376V31.2983Z" fill="#606060"/>
<path d="M16.2881 21.4919C15.8998 21.4919 15.585 21.8067 15.585 22.1951V32.0014C15.585 32.3898 15.8998 32.7045 16.2881 32.7045H19.1406C19.5289 32.7045 19.8437 32.3898 19.8437 32.0014V22.1951C19.8437 21.8067 19.5289 21.4919 19.1406 21.4919H16.2881ZM18.4376 31.2983H16.9913V22.8982H18.4376V31.2983Z" fill="#2926D2"/>
<path d="M22.7412 25.0859C22.3529 25.0859 22.0381 25.4007 22.0381 25.7891V32.0021C22.0381 32.3905 22.3529 32.7052 22.7412 32.7052H25.5937C25.9821 32.7052 26.2969 32.3905 26.2969 32.0021V25.7891C26.2969 25.4007 25.9821 25.0859 25.5937 25.0859H22.7412ZM24.8906 31.299H23.4443V26.4923H24.8906V31.299Z" fill="#606060"/>
<path d="M22.7412 25.0859C22.3529 25.0859 22.0381 25.4007 22.0381 25.7891V32.0021C22.0381 32.3905 22.3529 32.7052 22.7412 32.7052H25.5937C25.9821 32.7052 26.2969 32.3905 26.2969 32.0021V25.7891C26.2969 25.4007 25.9821 25.0859 25.5937 25.0859H22.7412ZM24.8906 31.299H23.4443V26.4923H24.8906V31.299Z" fill="#2926D2"/>
<path d="M29.1943 29.2344C28.806 29.2344 28.4912 29.5491 28.4912 29.9375V32.0016C28.4912 32.39 28.806 32.7047 29.1943 32.7047H32.0469C32.4352 32.7047 32.75 32.39 32.75 32.0016C32.75 31.6132 32.4352 31.2985 32.0469 31.2985H29.8975V29.9375C29.8975 29.5491 29.5826 29.2344 29.1943 29.2344Z" fill="#606060"/>
<path d="M29.1943 29.2344C28.806 29.2344 28.4912 29.5491 28.4912 29.9375V32.0016C28.4912 32.39 28.806 32.7047 29.1943 32.7047H32.0469C32.4352 32.7047 32.75 32.39 32.75 32.0016C32.75 31.6132 32.4352 31.2985 32.0469 31.2985H29.8975V29.9375C29.8975 29.5491 29.5826 29.2344 29.1943 29.2344Z" fill="#2926D2"/>
<path d="M47.6412 36.0018L43.6075 29.0149C44.6294 27.9257 45.3736 26.5947 45.7711 25.1112C46.4065 22.7402 46.0804 20.2636 44.853 18.1377C42.3193 13.749 36.6877 12.2403 32.2992 14.7739C27.9107 17.3074 26.4018 22.9391 28.9355 27.3276C30.1629 29.4535 32.1447 30.9741 34.5157 31.6096C35.3075 31.8217 36.1108 31.9266 36.9091 31.9266C37.6068 31.9266 38.3005 31.8464 38.9788 31.6876L43.0118 38.6746C43.5061 39.5312 44.4063 40.0105 45.3309 40.0104C45.784 40.0104 46.243 39.8952 46.6629 39.6529C47.4875 39.177 47.9998 38.2894 47.9998 37.3368C47.9998 36.87 47.8759 36.4084 47.6412 36.0018ZM34.8796 30.2512C32.8714 29.7131 31.1928 28.4251 30.1532 26.6245C28.0073 22.9075 29.2854 18.1377 33.0023 15.9917C34.2251 15.2857 35.5613 14.9505 36.8811 14.9505C39.5731 14.9505 42.1951 16.3467 43.6351 18.8408C44.6746 20.6414 44.9508 22.7389 44.4127 24.7473C43.8746 26.7556 42.5865 28.434 40.786 29.4736C38.9855 30.5132 36.8879 30.7892 34.8796 30.2512ZM45.96 38.4349C45.3551 38.7843 44.5788 38.5763 44.2298 37.9716L40.3497 31.2494C40.7385 31.0907 41.1193 30.905 41.4893 30.6915C41.8595 30.4777 42.2101 30.2398 42.5421 29.9822L46.4233 36.7047C46.5347 36.8979 46.5936 37.1165 46.5936 37.3368C46.5936 37.7885 46.3508 38.2094 45.96 38.4349Z" fill="#606060"/>
<path d="M47.6412 36.0018L43.6075 29.0149C44.6294 27.9257 45.3736 26.5947 45.7711 25.1112C46.4065 22.7402 46.0804 20.2636 44.853 18.1377C42.3193 13.749 36.6877 12.2403 32.2992 14.7739C27.9107 17.3074 26.4018 22.9391 28.9355 27.3276C30.1629 29.4535 32.1447 30.9741 34.5157 31.6096C35.3075 31.8217 36.1108 31.9266 36.9091 31.9266C37.6068 31.9266 38.3005 31.8464 38.9788 31.6876L43.0118 38.6746C43.5061 39.5312 44.4063 40.0105 45.3309 40.0104C45.784 40.0104 46.243 39.8952 46.6629 39.6529C47.4875 39.177 47.9998 38.2894 47.9998 37.3368C47.9998 36.87 47.8759 36.4084 47.6412 36.0018ZM34.8796 30.2512C32.8714 29.7131 31.1928 28.4251 30.1532 26.6245C28.0073 22.9075 29.2854 18.1377 33.0023 15.9917C34.2251 15.2857 35.5613 14.9505 36.8811 14.9505C39.5731 14.9505 42.1951 16.3467 43.6351 18.8408C44.6746 20.6414 44.9508 22.7389 44.4127 24.7473C43.8746 26.7556 42.5865 28.434 40.786 29.4736C38.9855 30.5132 36.8879 30.7892 34.8796 30.2512ZM45.96 38.4349C45.3551 38.7843 44.5788 38.5763 44.2298 37.9716L40.3497 31.2494C40.7385 31.0907 41.1193 30.905 41.4893 30.6915C41.8595 30.4777 42.2101 30.2398 42.5421 29.9822L46.4233 36.7047C46.5347 36.8979 46.5936 37.1165 46.5936 37.3368C46.5936 37.7885 46.3508 38.2094 45.96 38.4349Z" fill="#2926D2"/>
<path d="M43.2698 24.7138C43.7662 23.1148 43.648 21.403 42.9369 19.8936C42.7713 19.5422 42.3524 19.3916 42.0012 19.5571C41.6498 19.7227 41.4992 20.1415 41.6648 20.4928C42.2257 21.6835 42.3188 23.0343 41.9268 24.2967C41.5327 25.5661 40.6812 26.6314 39.5293 27.2965C38.3104 28.0003 36.8902 28.1871 35.5307 27.8229C34.1711 27.4585 33.0347 26.5866 32.331 25.3676C30.8782 22.8513 31.7435 19.6222 34.2598 18.1693C36.0997 17.1072 38.383 17.2492 40.0771 18.5309C40.3869 18.7653 40.8278 18.7043 41.0621 18.3945C41.2963 18.0849 41.2353 17.6439 40.9256 17.4096C38.7795 15.7857 35.887 15.606 33.5566 16.9514C32.0124 17.843 30.9077 19.2826 30.4462 21.005C29.9846 22.7274 30.2215 24.5264 31.1131 26.0707C32.0047 27.615 33.4443 28.7196 35.1667 29.1812C35.7418 29.3353 36.3255 29.4115 36.9054 29.4115C38.0621 29.4115 39.2038 29.1082 40.2324 28.5143C41.6918 27.6718 42.7705 26.3222 43.2698 24.7138Z" fill="#606060"/>
<path d="M43.2698 24.7138C43.7662 23.1148 43.648 21.403 42.9369 19.8936C42.7713 19.5422 42.3524 19.3916 42.0012 19.5571C41.6498 19.7227 41.4992 20.1415 41.6648 20.4928C42.2257 21.6835 42.3188 23.0343 41.9268 24.2967C41.5327 25.5661 40.6812 26.6314 39.5293 27.2965C38.3104 28.0003 36.8902 28.1871 35.5307 27.8229C34.1711 27.4585 33.0347 26.5866 32.331 25.3676C30.8782 22.8513 31.7435 19.6222 34.2598 18.1693C36.0997 17.1072 38.383 17.2492 40.0771 18.5309C40.3869 18.7653 40.8278 18.7043 41.0621 18.3945C41.2963 18.0849 41.2353 17.6439 40.9256 17.4096C38.7795 15.7857 35.887 15.606 33.5566 16.9514C32.0124 17.843 30.9077 19.2826 30.4462 21.005C29.9846 22.7274 30.2215 24.5264 31.1131 26.0707C32.0047 27.615 33.4443 28.7196 35.1667 29.1812C35.7418 29.3353 36.3255 29.4115 36.9054 29.4115C38.0621 29.4115 39.2038 29.1082 40.2324 28.5143C41.6918 27.6718 42.7705 26.3222 43.2698 24.7138Z" fill="#2926D2"/>
</g>
</svg>
