<svg width="48" height="48" viewBox="0 0 48 48" fill="none" xmlns="http://www.w3.org/2000/svg">
<g opacity="0.15" clip-path="url(#clip0)">
<path d="M24.0001 30.1938C21.0117 30.1938 18.5808 32.6256 18.5808 35.6131C18.5808 38.6007 21.0117 41.0324 24.0001 41.0324C26.9884 41.0324 29.4194 38.6007 29.4194 35.6131C29.4194 32.6256 26.9884 30.1938 24.0001 30.1938ZM24.0001 39.4841C21.8657 39.4841 20.1292 37.7476 20.1292 35.6131C20.1292 33.4787 21.8657 31.7422 24.0001 31.7422C26.1345 31.7422 27.871 33.4787 27.871 35.6131C27.871 37.7476 26.1345 39.4841 24.0001 39.4841Z" fill="#2926D2"/>
<path d="M7.74227 24.7744H3.09717V26.3228H7.74227V24.7744Z" fill="#2926D2"/>
<path d="M7.74227 27.8713H3.09717V29.4197H7.74227V27.8713Z" fill="#2926D2"/>
<path d="M44.9029 24.7744H40.2578V26.3228H44.9029V24.7744Z" fill="#2926D2"/>
<path d="M44.9029 27.8713H40.2578V29.4197H44.9029V27.8713Z" fill="#2926D2"/>
<path d="M43.3546 13.9359H33.2716C33.6819 12.9589 33.9304 11.9145 34.0148 10.8392H44.1287C46.2632 10.8392 47.9997 9.10268 47.9997 6.96826C47.9997 4.83383 46.2632 3.09734 44.1287 3.09734H31.2463C31.1557 3.00366 31.0737 2.90456 30.9792 2.81321C28.9903 0.898653 26.3713 -0.0977218 23.6074 0.00756721C20.9729 0.108985 18.5644 1.28652 16.8093 3.09734H6.82777L1.2281 5.19692C0.493399 5.47176 0.000244141 6.18401 0.000244141 6.96826C0.000244141 7.7525 0.493399 8.46475 1.22733 8.73959L6.82777 10.8392H13.9812C14.0648 11.9176 14.3211 12.9589 14.7306 13.9359H4.64535V21.6778H0.000244141V32.5163H10.8388V21.6778H6.19372V15.4843H15.4839V15.3805C16.2643 16.6278 17.3033 17.7186 18.5807 18.5369V19.3552H17.0323V20.9036H18.5807V22.4519H17.0323V24.0003H18.6426C18.7595 24.8117 19.0521 25.5665 19.488 26.2214L17.3365 24.7598L13.1459 28.9497L14.8437 31.448C14.7469 31.6593 14.6579 31.873 14.5774 32.0859L11.613 32.6503V38.5759L14.5774 39.1403C14.6579 39.3532 14.7469 39.5668 14.8437 39.7782L13.1459 42.2765L17.3365 46.4664L19.8348 44.7693C20.047 44.8669 20.2599 44.9559 20.472 45.0364L21.0371 48H26.9628L27.5279 45.0364C27.74 44.9559 27.9529 44.8669 28.1651 44.7693L30.6634 46.4664L34.854 42.2765L33.1562 39.7782C33.253 39.5668 33.342 39.3532 33.4225 39.1403L36.3869 38.5759V32.6503L33.4225 32.0859C33.342 31.873 33.253 31.6593 33.1562 31.448L34.854 28.9497L30.6634 24.7598L28.5119 26.2214C28.9478 25.5673 29.2396 24.8124 29.3565 24.0011H30.9676V22.4527H29.4192V20.9043H30.9676V19.356H29.4192V18.5369C30.6935 17.7201 31.7341 16.6262 32.516 15.3743V15.4843H41.8062V21.6778H37.1611V32.5163H47.9997V21.6778H43.3546V13.9359ZM6.19372 8.94785L1.7708 7.28954C1.63764 7.23922 1.54861 7.11071 1.54861 6.96826C1.54861 6.82581 1.63764 6.69729 1.77158 6.64697L6.19372 4.98867V8.94785ZM9.29045 23.2261V30.968H1.54861V23.2261H9.29045ZM37.1611 9.29081H34.0256C33.9862 8.76436 33.9056 8.24798 33.7864 7.74244H37.1611V9.29081ZM41.8062 4.6457H44.1287C45.4092 4.6457 46.4513 5.68776 46.4513 6.96826C46.4513 8.24876 45.4092 9.29081 44.1287 9.29081H41.8062V4.6457ZM38.7094 4.6457H40.2578V9.29081H38.7094V4.6457ZM37.1611 4.6457V6.19407H33.294C33.0695 5.65524 32.7908 5.13963 32.4734 4.6457H37.1611ZM13.9774 9.29081H7.74209V7.74244H14.2228C14.0989 8.24643 14.0192 8.76359 13.9774 9.29081ZM14.7097 6.27072V6.19407H7.74209V4.6457H15.5753C15.2393 5.15899 14.949 5.70169 14.7097 6.27072ZM30.4745 26.7603L32.8535 29.1386L31.3655 31.3272L31.5753 31.7352C31.7898 32.1548 31.9679 32.5798 32.1033 32.9994L32.2442 33.4361L34.8385 33.9308V37.2954L32.2435 37.7901L32.1026 38.2267C31.9671 38.6463 31.7898 39.0713 31.5746 39.491L31.3648 39.899L32.8527 42.0876L30.4737 44.4659L28.2851 42.9787L27.8763 43.1885C27.4536 43.4045 27.0286 43.5825 26.6128 43.7165L26.1762 43.8581L25.6823 46.4516H22.3176L21.8229 43.8574L21.3863 43.7157C20.9706 43.5817 20.5455 43.4045 20.1228 43.1877L19.7141 42.9779L17.5254 44.4651L15.1464 42.0868L16.6344 39.8982L16.4246 39.4902C16.2101 39.0706 16.032 38.6455 15.8966 38.2259L15.7557 37.7893L13.1614 37.2954V33.9308L15.7564 33.4361L15.8973 32.9994C16.0328 32.5798 16.2101 32.1548 16.4253 31.7352L16.6351 31.3272L15.1472 29.1386L17.5262 26.7603L19.7156 28.2475L20.1244 28.0377C20.3884 27.9014 20.6562 27.7853 20.9233 27.6808C21.7966 28.2877 22.8565 28.6454 24 28.6454C25.1434 28.6454 26.2033 28.2877 27.0781 27.6808C27.3437 27.7853 27.6107 27.9014 27.8778 28.0377L28.2858 28.2475L30.4745 26.7603ZM27.8709 20.9036V22.4519H20.129V20.9036H27.8709ZM21.6774 11.6134H20.129C19.2751 11.6134 18.5807 10.9189 18.5807 10.065C18.5807 9.21107 19.2751 8.51662 20.129 8.51662C20.983 8.51662 21.6774 9.21107 21.6774 10.065V11.6134ZM23.2258 19.3552V13.1617H24.7741V19.3552H23.2258ZM27.7927 24.0003C27.4327 25.7647 25.8688 27.097 24 27.097C22.1311 27.097 20.5672 25.7647 20.2072 24.0003H27.7927ZM28.2572 17.4321L27.8709 17.6559V19.3552H26.3225V13.1617H27.8709C29.5787 13.1617 30.9676 11.7728 30.9676 10.065C30.9676 8.35714 29.5787 6.96826 27.8709 6.96826C26.163 6.96826 24.7741 8.35714 24.7741 10.065V11.6134H23.2258V10.065C23.2258 8.35714 21.8369 6.96826 20.129 6.96826C18.4212 6.96826 17.0323 8.35714 17.0323 10.065C17.0323 11.7728 18.4212 13.1617 20.129 13.1617H21.6774V19.3552H20.129V17.6559L19.7427 17.4321C17.0462 15.8698 15.415 12.9705 15.4862 9.86525C15.5877 5.45163 19.2565 1.72393 23.6655 1.55594C23.7785 1.55052 23.89 1.54897 24.0023 1.54897C26.218 1.54897 28.3036 2.38741 29.9054 3.92881C31.5885 5.54918 32.516 7.72851 32.516 10.065C32.516 13.0874 30.884 15.9101 28.2572 17.4321ZM26.3225 11.6134V10.065C26.3225 9.21107 27.0169 8.51662 27.8709 8.51662C28.7248 8.51662 29.4192 9.21107 29.4192 10.065C29.4192 10.9189 28.7248 11.6134 27.8709 11.6134H26.3225ZM46.4513 23.2261V30.968H38.7094V23.2261H46.4513Z" fill="#2926D2"/>
</g>
<defs>
<clipPath id="clip0">
<rect width="48" height="48" fill="white"/>
</clipPath>
</defs>
</svg>
