<svg width="36" height="36" viewBox="0 0 36 36" fill="none" xmlns="http://www.w3.org/2000/svg">
<path d="M29.7886 7.37907H28.8634V5.31979C28.8634 2.38756 26.4758 0 23.5436 0H12.3743C9.44207 0 7.0545 2.38756 7.0545 5.31979V7.37907H6.21139C3.27917 7.37907 0.891602 9.76663 0.891602 12.6989V21.2792C0.891602 24.2114 3.27917 26.599 6.21139 26.599H7.04704V33.3438C7.04704 34.8062 8.24082 36 9.70321 36H26.1998C27.6622 36 28.8559 34.8062 28.8559 33.3438V26.599H29.7886C32.7208 26.599 35.1084 24.2114 35.1084 21.2792V12.6989C35.1084 9.76663 32.7208 7.37907 29.7886 7.37907ZM9.06155 5.31979C9.06155 3.49927 10.5463 2.01451 12.3668 2.01451H23.5287C25.3492 2.01451 26.834 3.49927 26.834 5.31979V7.37907H9.06155V5.31979ZM26.8414 33.3588C26.8414 33.7094 26.5505 34.0004 26.1998 34.0004H9.70321C9.35253 34.0004 9.06155 33.7094 9.06155 33.3588V22.2342H26.8414V33.3588ZM33.0939 21.2866C33.0939 23.1071 31.6091 24.5919 29.7886 24.5919H28.8634V22.2342H30.1915C30.7511 22.2342 31.1987 21.7865 31.1987 21.2269C31.1987 20.6674 30.7511 20.2197 30.1915 20.2197H5.56974C5.01015 20.2197 4.56248 20.6674 4.56248 21.2269C4.56248 21.7865 5.01015 22.2342 5.56974 22.2342H7.0545V24.5919H6.21139C4.39088 24.5919 2.90611 23.1071 2.90611 21.2866V12.7063C2.90611 10.8858 4.39088 9.40104 6.21139 9.40104H29.7886C31.6091 9.40104 33.0939 10.8858 33.0939 12.7063V21.2866Z" fill="#D22630"/>
<path d="M11.5014 27.1884H24.3271C24.8867 27.1884 25.3343 26.7407 25.3343 26.1811C25.3343 25.6215 24.8867 25.1739 24.3271 25.1739H11.5014C10.9418 25.1739 10.4941 25.6215 10.4941 26.1811C10.4941 26.7407 10.9493 27.1884 11.5014 27.1884Z" fill="#D22630"/>
<path d="M24.4088 29.2924H11.5756C11.016 29.2924 10.5684 29.7401 10.5684 30.2997C10.5684 30.8593 11.016 31.307 11.5756 31.307H24.4013C24.9609 31.307 25.4086 30.8593 25.4086 30.2997C25.4086 29.7401 24.9609 29.2924 24.4088 29.2924Z" fill="#D22630"/>
<path d="M29.7665 11.3334H27.7221C27.1625 11.3334 26.7148 11.7811 26.7148 12.3407C26.7148 12.9003 27.1625 13.3479 27.7221 13.3479H29.7665C30.326 13.3479 30.7737 12.9003 30.7737 12.3407C30.7737 11.7811 30.326 11.3334 29.7665 11.3334Z" fill="#D22630"/>
</svg>
