<svg width="20" height="20" viewBox="0 0 20 20" fill="#606060" xmlns="http://www.w3.org/2000/svg">
<path d="M18.0645 5.80663H13.8633C14.0343 5.39954 14.1378 4.96438 14.173 4.51632H18.3871C19.2765 4.51632 20 3.79278 20 2.90344C20 2.0141 19.2765 1.29056 18.3871 1.29056H13.0194C12.9817 1.25152 12.9475 1.21023 12.9082 1.17217C12.0795 0.374439 10.9882 -0.0407174 9.83658 0.00315301C8.73885 0.0454105 7.73531 0.53605 7.00403 1.29056H2.84505L0.511851 2.16538C0.205725 2.2799 0.000244141 2.57667 0.000244141 2.90344C0.000244141 3.23021 0.205725 3.52698 0.511528 3.6415L2.84505 4.51632H5.82566C5.8605 4.96567 5.96727 5.39954 6.13791 5.80663H1.9357V9.0324H0.000244141V13.5485H4.51632V9.0324H2.58086V6.45178H6.45178V6.40856C6.77694 6.92823 7.20983 7.38274 7.74208 7.7237V8.06467H7.09693V8.70982H7.74208V9.35497H7.09693V10.0001H7.76789C7.8166 10.3382 7.93853 10.6527 8.12014 10.9256L7.2237 10.3166L5.4776 12.0624L6.18501 13.1033C6.14468 13.1914 6.10759 13.2804 6.07404 13.3691L4.83889 13.6043V16.0733L6.07404 16.3084C6.10759 16.3971 6.14468 16.4862 6.18501 16.5742L5.4776 17.6152L7.2237 19.361L8.26466 18.6539C8.35304 18.6945 8.44175 18.7316 8.53014 18.7652L8.76562 20H11.2346L11.4701 18.7652C11.5585 18.7316 11.6472 18.6945 11.7356 18.6539L12.7765 19.361L14.5226 17.6152L13.8152 16.5742C13.8556 16.4862 13.8927 16.3971 13.9262 16.3084L15.1613 16.0733V13.6043L13.9262 13.3691C13.8927 13.2804 13.8556 13.1914 13.8152 13.1033L14.5226 12.0624L12.7765 10.3166L11.8801 10.9256C12.0617 10.653 12.1833 10.3385 12.232 10.0004H12.9033V9.3553H12.2582V8.71014H12.9033V8.06499H12.2582V7.7237C12.7891 7.38338 13.2227 6.92758 13.5485 6.40598V6.45178H17.4194V9.0324H15.4839V13.5485H20V9.0324H18.0645V5.80663ZM2.58086 3.72827L0.737977 3.03731C0.682494 3.01634 0.645398 2.96279 0.645398 2.90344C0.645398 2.84409 0.682494 2.79054 0.7383 2.76957L2.58086 2.07861V3.72827ZM3.87116 9.67755V12.9033H0.645398V9.67755H3.87116ZM15.4839 3.87117H14.1775C14.161 3.65182 14.1275 3.43666 14.0778 3.22602H15.4839V3.87117ZM17.4194 1.93571H18.3871C18.9207 1.93571 19.3548 2.3699 19.3548 2.90344C19.3548 3.43698 18.9207 3.87117 18.3871 3.87117H17.4194V1.93571ZM16.1291 1.93571H16.7742V3.87117H16.1291V1.93571ZM15.4839 1.93571V2.58086H13.8727C13.7791 2.35635 13.663 2.14151 13.5307 1.93571H15.4839ZM5.82404 3.87117H3.22601V3.22602H5.9263C5.87469 3.43601 5.84146 3.6515 5.82404 3.87117ZM6.1292 2.6128V2.58086H3.22601V1.93571H6.48984C6.34984 2.14958 6.22888 2.3757 6.1292 2.6128ZM12.6978 11.1501L13.6891 12.1411L13.0691 13.053L13.1565 13.223C13.2459 13.3978 13.3201 13.5749 13.3765 13.7498L13.4352 13.9317L14.5162 14.1378V15.5397L13.4349 15.7459L13.3762 15.9278C13.3198 16.1026 13.2459 16.2797 13.1562 16.4546L13.0688 16.6246L13.6888 17.5365L12.6975 18.5274L11.7856 17.9078L11.6153 17.9952C11.4391 18.0852 11.262 18.1594 11.0888 18.2152L10.9069 18.2742L10.7011 19.3549H9.29916L9.09304 18.2739L8.9111 18.2149C8.73788 18.1591 8.56078 18.0852 8.38466 17.9949L8.21434 17.9074L7.30241 18.5271L6.31113 17.5362L6.93113 16.6242L6.84371 16.4542C6.75435 16.2794 6.68016 16.1023 6.62371 15.9275L6.565 15.7455L5.48405 15.5397V14.1378L6.56532 13.9317L6.62403 13.7498C6.68048 13.5749 6.75435 13.3978 6.84403 13.223L6.93145 13.053L6.31146 12.1411L7.30273 11.1501L8.21498 11.7698L8.3853 11.6824C8.4953 11.6256 8.60691 11.5772 8.7182 11.5337C9.08207 11.7866 9.52368 11.9356 10.0001 11.9356C10.4766 11.9356 10.9182 11.7866 11.2827 11.5337C11.3933 11.5772 11.5046 11.6256 11.6159 11.6824L11.7859 11.7698L12.6978 11.1501ZM11.613 8.70982V9.35497H8.38724V8.70982H11.613ZM9.03239 4.8389H8.38724C8.03144 4.8389 7.74208 4.54955 7.74208 4.19375C7.74208 3.83794 8.03144 3.54859 8.38724 3.54859C8.74304 3.54859 9.03239 3.83794 9.03239 4.19375V4.8389ZM9.67755 8.06467V5.48405H10.3227V8.06467H9.67755ZM11.5804 10.0001C11.4304 10.7353 10.7788 11.2904 10.0001 11.2904C9.22142 11.2904 8.56982 10.7353 8.41982 10.0001H11.5804ZM11.774 7.26339L11.613 7.35661V8.06467H10.9679V5.48405H11.613C12.3246 5.48405 12.9033 4.90535 12.9033 4.19375C12.9033 3.48214 12.3246 2.90344 11.613 2.90344C10.9014 2.90344 10.3227 3.48214 10.3227 4.19375V4.8389H9.67755V4.19375C9.67755 3.48214 9.09884 2.90344 8.38724 2.90344C7.67563 2.90344 7.09693 3.48214 7.09693 4.19375C7.09693 4.90535 7.67563 5.48405 8.38724 5.48405H9.03239V8.06467H8.38724V7.35661L8.22627 7.26339C7.10274 6.61243 6.42307 5.40438 6.45275 4.11052C6.495 2.27151 8.02369 0.718305 9.86077 0.648306C9.90786 0.646048 9.95432 0.645403 10.0011 0.645403C10.9243 0.645403 11.7933 0.994754 12.4607 1.637C13.162 2.31216 13.5485 3.22021 13.5485 4.19375C13.5485 5.45309 12.8685 6.6292 11.774 7.26339ZM10.9679 4.8389V4.19375C10.9679 3.83794 11.2572 3.54859 11.613 3.54859C11.9688 3.54859 12.2582 3.83794 12.2582 4.19375C12.2582 4.54955 11.9688 4.8389 11.613 4.8389H10.9679ZM19.3548 9.67755V12.9033H16.1291V9.67755H19.3548Z"
/>
</svg>
