<svg width="48" height="48" viewBox="0 0 48 48" fill="none" xmlns="http://www.w3.org/2000/svg">
<g opacity="0.15">
<path d="M29.9043 0.474487L28.821 1.5578L29.8116 2.54842H17.1045V4.08069H29.8116L28.821 5.0713L29.9043 6.15462L32.7444 3.31455L29.9043 0.474487Z" fill="#2926D2"/>
<path d="M31.6614 7.91109H18.9542L19.9449 6.92048L18.8615 5.83716L16.0215 8.67723L18.8615 11.5173L19.9449 10.434L18.9542 9.44337H31.6614V7.91109Z" fill="#2926D2"/>
<path d="M32.8581 38.0654L27.8307 37.1506V36.7538C29.7108 35.662 31.0875 33.7995 31.5166 31.5977C32.9094 31.3096 33.9598 30.0738 33.9598 28.5967V21.0296C33.9598 20.1631 33.7207 19.3479 33.3124 18.6369H48L46.7206 14.1596C46.3168 12.7453 45.1186 11.675 43.6667 11.4329L41.6211 11.092V10.5534C42.5995 9.67848 43.1534 8.45726 43.1534 7.14487V4.84645C43.1534 2.31131 41.0917 0.249634 38.5566 0.249634C36.0215 0.249634 33.9598 2.31131 33.9598 4.84645V7.14487C33.9598 8.45726 34.5137 9.67924 35.4921 10.5534V11.092L33.4457 11.4329C31.9946 11.6743 30.7964 12.7453 30.3926 14.1596L29.9153 15.829C28.1617 14.1841 25.8901 13.274 23.4737 13.274C21.3798 13.274 19.4499 13.9681 17.8832 15.1265L17.6074 14.1596C17.2036 12.7453 16.0054 11.675 14.5535 11.4329L12.5079 11.092V10.5534C13.4863 9.67848 14.0402 8.45726 14.0402 7.14487V4.84645C14.0402 2.31131 11.9785 0.249634 9.4434 0.249634C6.90826 0.249634 4.84658 2.31131 4.84658 4.84645V7.14487C4.84658 8.45726 5.4005 9.67924 6.37885 10.5534V11.092L4.33327 11.4337C2.88221 11.675 1.68397 12.7461 1.28021 14.1604L0 18.6369H14.9764C14.3827 19.8712 14.0402 21.2487 14.0402 22.7074V28.5967C14.0402 30.0738 15.0906 31.3096 16.4834 31.5977C16.9132 33.7995 18.2892 35.6628 20.1693 36.7538V37.1506L15.1419 38.0646C13.1477 38.4278 11.5472 39.8589 10.9642 41.8003L9.17985 47.7501H38.8201L37.0358 41.8003C36.4528 39.8589 34.8523 38.4278 32.8581 38.0654ZM31.6614 29.916V27.2774C32.1172 27.5433 32.4275 28.0321 32.4275 28.5967C32.4275 29.1613 32.1172 29.6501 31.6614 29.916ZM31.8659 14.5802C32.108 13.7321 32.8274 13.0901 33.6978 12.9445L37.0243 12.3914V9.81102L36.7202 9.58118C35.9395 8.99049 35.4921 8.10254 35.4921 7.14487V4.84645C35.4921 3.15636 36.8665 1.78191 38.5566 1.78191C40.2467 1.78191 41.6211 3.15636 41.6211 4.84645V7.14487C41.6211 8.10254 41.1737 8.99049 40.393 9.58118L40.0889 9.81026V12.3906L43.4154 12.9445C44.2865 13.0893 45.0052 13.7313 45.248 14.5802L45.9682 17.1046H31.9318C31.7204 16.9545 31.4959 16.8204 31.2591 16.7047L31.8659 14.5802ZM2.03199 17.1039L2.75273 14.5802C2.99483 13.7321 3.71423 13.0901 4.58456 12.9445L7.91113 12.3914V9.81102L7.60697 9.58118C6.82628 8.99049 6.37885 8.10254 6.37885 7.14487V4.84645C6.37885 3.15636 7.7533 1.78191 9.4434 1.78191C11.1335 1.78191 12.5079 3.15636 12.5079 4.84645V7.14487C12.5079 8.10254 12.0605 8.99049 11.2798 9.58118L10.9757 9.81026V12.3906L14.3022 12.9445C15.1733 13.0893 15.892 13.7313 16.1348 14.5802L16.6129 16.2535C16.3593 16.5224 16.1233 16.8066 15.9027 17.1039H2.03199ZM16.3386 29.916C15.8828 29.6501 15.5725 29.1613 15.5725 28.5967C15.5725 28.0321 15.8828 27.5433 16.3386 27.2774V29.916ZM16.3386 24.766V25.6409C16.0659 25.7122 15.81 25.8195 15.5725 25.9581V22.7074C15.5725 18.3511 19.1166 14.8062 23.4737 14.8062C25.5836 14.8062 27.5687 15.6283 29.0611 17.1207L29.7368 17.7972L29.9429 17.8478C31.4062 18.2132 32.4275 19.5218 32.4275 21.0296V25.9581C32.19 25.8195 31.9341 25.7114 31.6614 25.6409V24.766H29.2319C27.1557 24.766 25.1714 23.7746 23.9265 22.1144L23.3174 21.3008L21.7951 22.8239C20.5417 24.0765 18.8761 24.766 17.1048 24.766H16.3386ZM17.8709 30.129V26.263C19.7625 26.0876 21.5177 25.2671 22.8784 23.9072L23.1764 23.6091C24.7125 25.3046 26.9251 26.2983 29.2319 26.2983H30.1291V30.129C30.1291 33.5084 27.3794 36.2581 24 36.2581C20.6206 36.2581 17.8709 33.5084 17.8709 30.129ZM21.7667 37.4563C22.4739 37.6724 23.2231 37.7903 24 37.7903C24.7769 37.7903 25.5261 37.6724 26.2333 37.4563L24 39.1311L21.7667 37.4563ZM22.8339 40.1715L21.2703 41.7344L20.2559 38.6921L20.7439 38.604L22.8339 40.1715ZM27.2561 38.604L27.7433 38.6928L26.729 41.7352L25.1653 40.1723L27.2561 38.604ZM11.2392 46.2178L12.4329 42.2408C12.8489 40.8541 13.992 39.8313 15.417 39.5731L18.7343 38.9702L20.6014 44.5722L24 41.1721L27.3993 44.5714L29.2664 38.9694L32.5838 39.5724C34.008 39.8313 35.1519 40.8541 35.5679 42.2401L36.7608 46.2178H11.2392Z" fill="#2926D2"/>
<path d="M45.4517 43.1532C44.1845 43.1532 43.1533 44.1844 43.1533 45.4516C43.1533 46.7188 44.1845 47.75 45.4517 47.75C46.7189 47.75 47.7501 46.7188 47.7501 45.4516C47.7501 44.1844 46.7189 43.1532 45.4517 43.1532ZM45.4517 46.2177C45.0296 46.2177 44.6856 45.8745 44.6856 45.4516C44.6856 45.0287 45.0296 44.6855 45.4517 44.6855C45.8739 44.6855 46.2179 45.0287 46.2179 45.4516C46.2179 45.8745 45.8739 46.2177 45.4517 46.2177Z" fill="#2926D2"/>
<path d="M2.54841 43.1532C1.28122 43.1532 0.25 44.1844 0.25 45.4516C0.25 46.7188 1.28122 47.75 2.54841 47.75C3.8156 47.75 4.84682 46.7188 4.84682 45.4516C4.84682 44.1844 3.8156 43.1532 2.54841 43.1532ZM2.54841 46.2177C2.12627 46.2177 1.78227 45.8745 1.78227 45.4516C1.78227 45.0287 2.12627 44.6855 2.54841 44.6855C2.97055 44.6855 3.31455 45.0287 3.31455 45.4516C3.31455 45.8745 2.97055 46.2177 2.54841 46.2177Z" fill="#2926D2"/>
<path d="M3.3145 40.0887H1.78223V41.621H3.3145V40.0887Z" fill="#2926D2"/>
<path d="M3.3145 37.0243H1.78223V38.5566H3.3145V37.0243Z" fill="#2926D2"/>
<path d="M3.3145 33.9597H1.78223V35.492H3.3145V33.9597Z" fill="#2926D2"/>
<path d="M46.2178 40.0887H44.6855V41.621H46.2178V40.0887Z" fill="#2926D2"/>
<path d="M46.2178 37.0243H44.6855V38.5566H46.2178V37.0243Z" fill="#2926D2"/>
<path d="M46.2178 33.9597H44.6855V35.492H46.2178V33.9597Z" fill="#2926D2"/>
</g>
</svg>
