<svg width="48" height="48" viewBox="0 0 48 48" fill="none" xmlns="http://www.w3.org/2000/svg">
<g opacity="0.15">
<path d="M16.1662 32.5957L14.7427 33.0675C14.8964 33.5325 15.0869 33.9885 15.3089 34.4227L16.6447 33.7417C16.4572 33.3742 16.2967 32.988 16.1662 32.5957Z" fill="#2926D2"/>
<path d="M30.8758 25.4384C31.7751 26.7914 32.2506 28.3687 32.2506 29.9999C32.2506 34.5487 28.5493 38.2499 24.0006 38.2499C21.3523 38.2499 18.8473 36.9644 17.2978 34.8119L16.0806 35.6879C17.9106 38.2319 20.8716 39.7499 24.0006 39.7499C29.3766 39.7499 33.7506 35.3759 33.7506 29.9999C33.7506 28.0724 33.1881 26.2079 32.1253 24.6082L30.8758 25.4384Z" fill="#2926D2"/>
<path d="M45 11.25C43.7595 11.25 42.75 12.2595 42.75 13.5C42.75 13.926 42.876 14.3205 43.0823 14.6603L39.0075 19.6403C38.7697 19.5548 38.517 19.5 38.25 19.5C38.1398 19.5 38.034 19.5172 37.9275 19.5322L33.6082 15.213L29.6235 18.312C29.2913 18.1185 28.911 18 28.5 18C28.4415 18 28.3867 18.0128 28.329 18.0173C28.326 18.0158 28.323 18.015 28.32 18.0135L27.6623 12.75H20.3377L19.6815 18.0045C19.3125 18.1388 18.9435 18.2932 18.576 18.4672L14.3917 15.213L9.213 20.3917L12.4672 24.576C12.447 24.6195 12.4327 24.663 12.4125 24.7065L5.241 21.8378C5.2425 21.8085 5.25 21.78 5.25 21.75C5.25 20.5095 4.2405 19.5 3 19.5C1.7595 19.5 0.75 20.5095 0.75 21.75C0.75 22.9905 1.7595 24 3 24C3.67125 24 4.26825 23.6985 4.68075 23.2305L11.0917 25.7948L6.75 26.3378V33.6623L12.0045 34.3192C12.1388 34.6875 12.2932 35.0565 12.4672 35.424L9.213 39.6082L14.3917 44.787L18.576 41.5327C18.9427 41.7067 19.3118 41.8612 19.6815 41.9955L20.3377 47.25H27.6623L28.3185 41.9955C28.6875 41.8612 29.0565 41.7067 29.424 41.5327L33.6082 44.787L38.787 39.6082L35.5327 35.424C35.7067 35.0572 35.8612 34.6882 35.9955 34.3192L41.25 33.6623V26.3378L35.9955 25.6808C35.8612 25.3125 35.7067 24.9435 35.5327 24.576L36.5745 23.2365C36.987 23.7015 37.5817 24 38.25 24C39.4905 24 40.5 22.9905 40.5 21.75C40.5 21.324 40.3747 20.9295 40.1677 20.5897L44.2425 15.609C44.4803 15.6953 44.733 15.75 45 15.75C46.2405 15.75 47.25 14.7405 47.25 13.5C47.25 12.2595 46.2405 11.25 45 11.25ZM3 22.5C2.58675 22.5 2.25 22.164 2.25 21.75C2.25 21.336 2.58675 21 3 21C3.41325 21 3.75 21.336 3.75 21.75C3.75 22.164 3.41325 22.5 3 22.5ZM36.5573 20.2838C36.45 20.4075 36.357 20.5432 36.2782 20.6887L30.7073 19.8315C30.6825 19.701 30.6435 19.5765 30.597 19.455L33.483 17.2103L36.5573 20.2838ZM29.25 20.25C29.25 20.664 28.9132 21 28.5 21C28.0868 21 27.75 20.664 27.75 20.25C27.75 19.836 28.0868 19.5 28.5 19.5C28.9132 19.5 29.25 19.836 29.25 20.25ZM11.2095 20.5162L14.5162 17.2095L18.4065 20.235L18.8325 20.0138C19.416 19.7107 20.0085 19.4633 20.5935 19.278L21.051 19.1332L21.6623 14.25H26.3377L26.892 18.681C26.496 19.0868 26.25 19.6395 26.25 20.25C26.25 20.8807 26.5125 21.4492 26.9318 21.858L26.1285 23.5988C25.458 23.376 24.744 23.25 24 23.25C21.3983 23.25 19.14 24.732 18.0135 26.8935L16.494 26.3092C16.4948 26.289 16.5 26.2703 16.5 26.25C16.5 25.0095 15.4905 24 14.25 24C14.145 24 14.0445 24.0173 13.9432 24.0308L11.2095 20.5162ZM18.8843 28.836L21.756 29.9408C21.7552 29.961 21.75 29.9797 21.75 30C21.75 31.2405 22.7595 32.25 24 32.25C25.2405 32.25 26.25 31.2405 26.25 30C26.25 29.3692 25.9875 28.8007 25.5682 28.392L26.856 25.6012C28.2952 26.5387 29.25 28.1588 29.25 30C29.25 32.8943 26.895 35.25 24 35.25C21.105 35.25 18.75 32.8943 18.75 30C18.75 29.5995 18.7987 29.211 18.8843 28.836ZM24 29.25C24.4132 29.25 24.75 29.586 24.75 30C24.75 30.414 24.4132 30.75 24 30.75C23.5868 30.75 23.25 30.414 23.25 30C23.25 29.586 23.5868 29.25 24 29.25ZM24.2033 27.7703C24.135 27.7642 24.0697 27.75 24 27.75C23.3175 27.75 22.713 28.0612 22.2997 28.5427L19.4227 27.4365C20.3235 25.8353 22.0365 24.75 24 24.75C24.5198 24.75 25.0208 24.8287 25.4955 24.9697L24.2033 27.7703ZM14.25 25.5C14.6632 25.5 15 25.836 15 26.25C15 26.664 14.6632 27 14.25 27C13.8368 27 13.5 26.664 13.5 26.25C13.5 25.836 13.8368 25.5 14.25 25.5ZM33.9855 24.8333C34.2892 25.4175 34.5367 26.0092 34.7212 26.5935L34.866 27.0518L39.75 27.6623V32.3377L34.8667 32.9475L34.722 33.4058C34.5368 33.9893 34.2892 34.581 33.9862 35.166L33.765 35.5928L36.7905 39.483L33.4837 42.7898L29.5935 39.7643L29.1675 39.9855C28.584 40.2885 27.9915 40.536 27.4065 40.7212L26.949 40.866L26.3377 45.75H21.6623L21.0518 40.8667L20.5942 40.722C20.0093 40.5368 19.4167 40.2892 18.8333 39.9862L18.4072 39.765L14.517 42.7905L11.2102 39.4837L14.2358 35.5935L14.0145 35.1667C13.7108 34.5825 13.4633 33.9907 13.2787 33.4065L13.134 32.9482L8.25 32.3377V27.6623L12.201 27.1687C12.5535 27.9517 13.3372 28.5 14.25 28.5C14.9325 28.5 15.537 28.1888 15.9503 27.7073L17.4772 28.2945C17.334 28.8405 17.25 29.4097 17.25 30C17.25 33.7222 20.2785 36.75 24 36.75C27.7215 36.75 30.75 33.7222 30.75 30C30.75 27.555 29.439 25.4167 27.4883 24.2317L28.2967 22.479C28.365 22.4858 28.4303 22.5 28.5 22.5C29.355 22.5 30.0907 22.0155 30.471 21.312L35.5612 22.0958L33.7643 24.4065L33.9855 24.8333ZM38.25 22.5C37.8368 22.5 37.5 22.164 37.5 21.75C37.5 21.336 37.8368 21 38.25 21C38.6632 21 39 21.336 39 21.75C39 22.164 38.6632 22.5 38.25 22.5ZM45 14.25C44.5868 14.25 44.25 13.914 44.25 13.5C44.25 13.086 44.5868 12.75 45 12.75C45.4132 12.75 45.75 13.086 45.75 13.5C45.75 13.914 45.4132 14.25 45 14.25Z" fill="#2926D2"/>
<path d="M19.06 8.25H15.7495V0.75H14.2495V9.75H15.439L11.2495 13.9395L7.05996 9.75H8.24946V3.75H6.74946V8.25H3.43896L11.2495 16.0605L19.06 8.25Z" fill="#2926D2"/>
<path d="M6.75 0.75H8.25V2.25H6.75V0.75Z" fill="#2926D2"/>
<path d="M32.2504 14.25H33.7504V6.74995H32.5609L36.7504 2.56045L40.9399 6.74995H39.7504V11.25H41.2504V8.24995H44.5609L36.7504 0.439453L28.9399 8.24995H32.2504V14.25Z" fill="#2926D2"/>
<path d="M39.75 12.75H41.25V14.25H39.75V12.75Z" fill="#2926D2"/>
</g>
</svg>
