<svg width="20" height="20" viewBox="0 0 20 20" fill="#606060" xmlns="http://www.w3.org/2000/svg">
<path d="M6.7357 13.5815L6.14258 13.7781C6.20664 13.9719 6.28602 14.1619 6.37852 14.3428L6.93508 14.059C6.85695 13.9059 6.79008 13.745 6.7357 13.5815Z"/>
<path d="M12.8651 10.5994C13.2398 11.1631 13.4379 11.8203 13.4379 12.5C13.4379 14.3953 11.8958 15.9375 10.0004 15.9375C8.897 15.9375 7.85325 15.4019 7.20763 14.505L6.70044 14.87C7.46294 15.93 8.69669 16.5625 10.0004 16.5625C12.2404 16.5625 14.0629 14.74 14.0629 12.5C14.0629 11.6969 13.8286 10.92 13.3858 10.2534L12.8651 10.5994Z" fill="#606060"/>
<path d="M18.75 4.6875C18.2331 4.6875 17.8125 5.10812 17.8125 5.625C17.8125 5.8025 17.865 5.96688 17.9509 6.10844L16.2531 8.18344C16.1541 8.14781 16.0487 8.125 15.9375 8.125C15.8916 8.125 15.8475 8.13219 15.8031 8.13844L14.0034 6.33875L12.3431 7.63C12.2047 7.54938 12.0463 7.5 11.875 7.5C11.8506 7.5 11.8278 7.50531 11.8038 7.50719C11.8025 7.50656 11.8012 7.50625 11.8 7.50562L11.5259 5.3125H8.47406L8.20063 7.50188C8.04688 7.55781 7.89313 7.62219 7.74 7.69469L5.99656 6.33875L3.83875 8.49656L5.19469 10.24C5.18625 10.2581 5.18031 10.2763 5.17188 10.2944L2.18375 9.09906C2.18437 9.08687 2.1875 9.075 2.1875 9.0625C2.1875 8.54562 1.76688 8.125 1.25 8.125C0.733125 8.125 0.3125 8.54562 0.3125 9.0625C0.3125 9.57937 0.733125 10 1.25 10C1.52969 10 1.77844 9.87438 1.95031 9.67938L4.62156 10.7478L2.8125 10.9741V14.0259L5.00187 14.2997C5.05781 14.4531 5.12219 14.6069 5.19469 14.76L3.83875 16.5034L5.99656 18.6613L7.74 17.3053C7.89281 17.3778 8.04656 17.4422 8.20063 17.4981L8.47406 19.6875H11.5259L11.7994 17.4981C11.9531 17.4422 12.1069 17.3778 12.26 17.3053L14.0034 18.6613L16.1613 16.5034L14.8053 14.76C14.8778 14.6072 14.9422 14.4534 14.9981 14.2997L17.1875 14.0259V10.9741L14.9981 10.7003C14.9422 10.5469 14.8778 10.3931 14.8053 10.24L15.2394 9.68188C15.4113 9.87563 15.6591 10 15.9375 10C16.4544 10 16.875 9.57937 16.875 9.0625C16.875 8.885 16.8228 8.72062 16.7366 8.57906L18.4344 6.50375C18.5334 6.53969 18.6388 6.5625 18.75 6.5625C19.2669 6.5625 19.6875 6.14188 19.6875 5.625C19.6875 5.10812 19.2669 4.6875 18.75 4.6875ZM1.25 9.375C1.07781 9.375 0.9375 9.235 0.9375 9.0625C0.9375 8.89 1.07781 8.75 1.25 8.75C1.42219 8.75 1.5625 8.89 1.5625 9.0625C1.5625 9.235 1.42219 9.375 1.25 9.375ZM15.2322 8.45156C15.1875 8.50312 15.1487 8.55969 15.1159 8.62031L12.7947 8.26312C12.7844 8.20875 12.7681 8.15688 12.7488 8.10625L13.9513 7.17094L15.2322 8.45156ZM12.1875 8.4375C12.1875 8.61 12.0472 8.75 11.875 8.75C11.7028 8.75 11.5625 8.61 11.5625 8.4375C11.5625 8.265 11.7028 8.125 11.875 8.125C12.0472 8.125 12.1875 8.265 12.1875 8.4375ZM4.67063 8.54844L6.04844 7.17062L7.66937 8.43125L7.84688 8.33906C8.09 8.21281 8.33687 8.10969 8.58063 8.0325L8.77125 7.97219L9.02594 5.9375H10.9741L11.205 7.78375C11.04 7.95281 10.9375 8.18313 10.9375 8.4375C10.9375 8.70031 11.0469 8.93719 11.2216 9.1075L10.8869 9.83281C10.6075 9.74 10.31 9.6875 10 9.6875C8.91594 9.6875 7.975 10.305 7.50562 11.2056L6.8725 10.9622C6.87281 10.9537 6.875 10.9459 6.875 10.9375C6.875 10.4206 6.45437 10 5.9375 10C5.89375 10 5.85187 10.0072 5.80969 10.0128L4.67063 8.54844ZM7.86844 12.015L9.065 12.4753C9.06469 12.4838 9.0625 12.4916 9.0625 12.5C9.0625 13.0169 9.48312 13.4375 10 13.4375C10.5169 13.4375 10.9375 13.0169 10.9375 12.5C10.9375 12.2372 10.8281 12.0003 10.6534 11.83L11.19 10.6672C11.7897 11.0578 12.1875 11.7328 12.1875 12.5C12.1875 13.7059 11.2063 14.6875 10 14.6875C8.79375 14.6875 7.8125 13.7059 7.8125 12.5C7.8125 12.3331 7.83281 12.1713 7.86844 12.015ZM10 12.1875C10.1722 12.1875 10.3125 12.3275 10.3125 12.5C10.3125 12.6725 10.1722 12.8125 10 12.8125C9.82781 12.8125 9.6875 12.6725 9.6875 12.5C9.6875 12.3275 9.82781 12.1875 10 12.1875ZM10.0847 11.5709C10.0562 11.5684 10.0291 11.5625 10 11.5625C9.71562 11.5625 9.46375 11.6922 9.29156 11.8928L8.09281 11.4319C8.46812 10.7647 9.18188 10.3125 10 10.3125C10.2166 10.3125 10.4253 10.3453 10.6231 10.4041L10.0847 11.5709ZM5.9375 10.625C6.10969 10.625 6.25 10.765 6.25 10.9375C6.25 11.11 6.10969 11.25 5.9375 11.25C5.76531 11.25 5.625 11.11 5.625 10.9375C5.625 10.765 5.76531 10.625 5.9375 10.625ZM14.1606 10.3472C14.2872 10.5906 14.3903 10.8372 14.4672 11.0806L14.5275 11.2716L16.5625 11.5259V13.4741L14.5278 13.7281L14.4675 13.9191C14.3903 14.1622 14.2872 14.4088 14.1609 14.6525L14.0688 14.8303L15.3294 16.4513L13.9516 17.8291L12.3306 16.5684L12.1531 16.6606C11.91 16.7869 11.6631 16.89 11.4194 16.9672L11.2288 17.0275L10.9741 19.0625H9.02594L8.77156 17.0278L8.58094 16.9675C8.33719 16.8903 8.09031 16.7872 7.84719 16.6609L7.66969 16.5688L6.04875 17.8294L4.67094 16.4516L5.93156 14.8306L5.83938 14.6528C5.71281 14.4094 5.60969 14.1628 5.53281 13.9194L5.4725 13.7284L3.4375 13.4741V11.5259L5.08375 11.3203C5.23062 11.6466 5.55719 11.875 5.9375 11.875C6.22188 11.875 6.47375 11.7453 6.64594 11.5447L7.28219 11.7894C7.2225 12.0169 7.1875 12.2541 7.1875 12.5C7.1875 14.0509 8.44938 15.3125 10 15.3125C11.5506 15.3125 12.8125 14.0509 12.8125 12.5C12.8125 11.4812 12.2663 10.5903 11.4534 10.0966L11.7903 9.36625C11.8188 9.36906 11.8459 9.375 11.875 9.375C12.2312 9.375 12.5378 9.17313 12.6962 8.88L14.8172 9.20656L14.0684 10.1694L14.1606 10.3472ZM15.9375 9.375C15.7653 9.375 15.625 9.235 15.625 9.0625C15.625 8.89 15.7653 8.75 15.9375 8.75C16.1097 8.75 16.25 8.89 16.25 9.0625C16.25 9.235 16.1097 9.375 15.9375 9.375ZM18.75 5.9375C18.5778 5.9375 18.4375 5.7975 18.4375 5.625C18.4375 5.4525 18.5778 5.3125 18.75 5.3125C18.9222 5.3125 19.0625 5.4525 19.0625 5.625C19.0625 5.7975 18.9222 5.9375 18.75 5.9375Z"/>
<path d="M7.94137 3.4375H6.56199V0.3125H5.93699V4.0625H6.43262L4.68699 5.80813L2.94137 4.0625H3.43699V1.5625H2.81199V3.4375H1.43262L4.68699 6.69187L7.94137 3.4375Z"/>
<path d="M2.8125 0.3125H3.4375V0.9375H2.8125V0.3125Z"/>
<path d="M13.438 5.93748H14.063V2.81248H13.5673L15.313 1.06686L17.0586 2.81248H16.563V4.68748H17.188V3.43748H18.5673L15.313 0.183105L12.0586 3.43748H13.438V5.93748Z"/>
<path d="M16.5625 5.3125H17.1875V5.9375H16.5625V5.3125Z"/>
</svg>
