<svg width="142" height="156" viewBox="0 0 142 156" fill="none" xmlns="http://www.w3.org/2000/svg">
<path d="M123.265 40.9175C126.777 37.715 129 33.1175 129 28C129 18.3525 121.147 10.5 111.5 10.5C101.852 10.5 93.9999 18.3525 93.9999 28C93.9999 32.895 96.0249 37.32 99.2774 40.5H61.4999V34.9525L64.7549 34.14C68.7274 33.1475 71.4999 29.595 71.4999 25.5C71.4999 21.405 68.7274 17.8525 64.7549 16.8625L21.1849 5.97C20.2949 2.825 17.4274 0.5 13.9999 0.5C9.86491 0.5 6.49991 3.865 6.49991 8V43C6.49991 47.135 9.86491 50.5 13.9999 50.5C17.4274 50.5 20.2949 48.175 21.1849 45.03L41.4999 39.95V58C41.4999 63.515 45.9849 68 51.4999 68C57.0149 68 61.4999 63.515 61.4999 58H91.4999C92.8799 58 93.9999 59.12 93.9999 60.5V113H38.9999V103.955L0.909912 123L38.9999 142.045V133H93.9999V145.5C93.9999 151.015 98.4849 155.5 104 155.5C107.002 155.5 109.665 154.145 111.5 152.045C113.335 154.145 115.997 155.5 119 155.5C124.515 155.5 129 151.015 129 145.5V100.5C135.892 100.5 141.5 94.8925 141.5 88V63C141.5 52.0525 133.637 42.9175 123.265 40.9175ZM113.907 67.0575L111.5 69.465L109.092 67.0575L110.977 45.5H112.02L113.907 67.0575ZM98.9999 28C98.9999 21.1075 104.607 15.5 111.5 15.5C118.392 15.5 124 21.1075 124 28C124 34.8925 118.392 40.5 111.5 40.5C104.607 40.5 98.9999 34.8925 98.9999 28ZM21.4999 39.8V11.2L51.4999 18.7V32.3L21.4999 39.8ZM66.4999 25.5C66.4999 27.295 65.2849 28.8525 63.5424 29.29L56.4999 31.05V19.95L63.5424 21.71C65.2849 22.1475 66.4999 23.705 66.4999 25.5ZM16.4999 43C16.4999 44.38 15.3799 45.5 13.9999 45.5C12.6199 45.5 11.4999 44.38 11.4999 43V8C11.4999 6.62 12.6199 5.5 13.9999 5.5C15.3799 5.5 16.4999 6.62 16.4999 8V43ZM51.4999 63C48.7424 63 46.4999 60.7575 46.4999 58V38.7L56.4999 36.2V58C56.4999 60.7575 54.2574 63 51.4999 63ZM33.9999 128V133.955L12.0899 123L33.9999 112.045V118H93.9999V128H33.9999ZM136.5 88C136.5 92.135 133.135 95.5 129 95.5V58H124V145.5C124 148.258 121.757 150.5 119 150.5C116.242 150.5 114 148.258 114 145.5V85.5H109V145.5C109 148.258 106.757 150.5 104 150.5C101.242 150.5 98.9999 148.258 98.9999 145.5V60.5C98.9999 56.365 95.6349 53 91.4999 53H61.4999V45.5H105.96L103.907 68.9425L111.5 76.535L119.092 68.9425L117.04 45.5H119C128.647 45.5 136.5 53.3525 136.5 63V88Z" fill="#212020"/>
</svg>
